<?xml version="1.0" encoding="utf-8"?>
<!-- Generated by Mocodo 4.2.12 -->
<svg width="660" height="431" viewBox="0 0 660 431" xmlns="http://www.w3.org/2000/svg">
<rect x="0" y="0" width="660" height="431" fill="#f7f7f7" stroke="none" stroke-width="0"/>

<!-- Association LIKES -->
<g>
	<line x1="486" y1="169" x2="486" y2="34" stroke="#8073ac" stroke-width="2"/>
	<line x1="223" y1="169" x2="486" y2="34" stroke="#8073ac" stroke-width="2"/>
	<g>
		<path d="M512 9 a14 14 90 0 1 14 14 V34 h-80 V23 a14 14 90 0 1 14 -14" fill="#b2abd2" stroke="#b2abd2" stroke-width="0"/>
		<path d="M526 34 v11 a14 14 90 0 1 -14 14 H460 a14 14 90 0 1 -14 -14 V34 H80" fill="#d8daeb" stroke="#d8daeb" stroke-width="0"/>
		<rect x="446" y="9" width="80" height="50" fill="none" rx="14" stroke="#8073ac" stroke-width="2"/>
		<line x1="446" y1="34" x2="526" y2="34" stroke="#8073ac" stroke-width="1"/>
		<text x="468" y="26.75" fill="#000000" font-family="Verdana" font-size="12">LIKES</text>
		<text x="453" y="51.8" fill="#000000" font-family="Verdana" font-size="12">created_at</text>
	</g>
	<text x="491" y="76" fill="#b35806" font-family="Verdana" font-size="12">0,N</text>
	<text x="268" y="161.46" fill="#b35806" font-family="Verdana" font-size="12">0,N</text>
</g>

<!-- Association HAS_TAG -->
<g>
	<line x1="223" y1="169" x2="114" y2="169" stroke="#8073ac" stroke-width="2"/>
	<line x1="27" y1="169" x2="114" y2="169" stroke="#8073ac" stroke-width="2"/>
	<g>
		<path d="M137 144 a14 14 90 0 1 14 14 V169 h-74 V158 a14 14 90 0 1 14 -14" fill="#b2abd2" stroke="#b2abd2" stroke-width="0"/>
		<path d="M151 169 v11 a14 14 90 0 1 -14 14 H91 a14 14 90 0 1 -14 -14 V169 H74" fill="#d8daeb" stroke="#d8daeb" stroke-width="0"/>
		<rect x="77" y="144" width="74" height="50" fill="none" rx="14" stroke="#8073ac" stroke-width="2"/>
		<line x1="77" y1="169" x2="151" y2="169" stroke="#8073ac" stroke-width="1"/>
		<text x="85" y="161.75" fill="#000000" font-family="Verdana" font-size="12">HAS_TAG</text>
	</g>
	<text x="156" y="186" fill="#b35806" font-family="Verdana" font-size="12">0,N</text>
	<text x="50" y="186" fill="#b35806" font-family="Verdana" font-size="12">0,N</text>
</g>

<!-- Association AUTHORED_BY -->
<g>
	<line x1="486" y1="169" x2="348" y2="169" stroke="#8073ac" stroke-width="2"/>
	<line x1="223" y1="169" x2="348" y2="169" stroke="#8073ac" stroke-width="2"/>
	<g>
		<path d="M387 144 a14 14 90 0 1 14 14 V169 h-106 V158 a14 14 90 0 1 14 -14" fill="#b2abd2" stroke="#b2abd2" stroke-width="0"/>
		<path d="M401 169 v11 a14 14 90 0 1 -14 14 H309 a14 14 90 0 1 -14 -14 V169 H106" fill="#d8daeb" stroke="#d8daeb" stroke-width="0"/>
		<rect x="295" y="144" width="106" height="50" fill="none" rx="14" stroke="#8073ac" stroke-width="2"/>
		<line x1="295" y1="169" x2="401" y2="169" stroke="#8073ac" stroke-width="1"/>
		<text x="302" y="161.75" fill="#000000" font-family="Verdana" font-size="12">AUTHORED_BY</text>
	</g>
	<text x="406" y="161" fill="#b35806" font-family="Verdana" font-size="12">0,N</text>
	<text x="268" y="186" fill="#b35806" font-family="Verdana" font-size="12">1,1</text>
</g>

<!-- Association BELONGS -->
<g>
	<line x1="486" y1="169" x2="611" y2="169" stroke="#8073ac" stroke-width="2"/>
	<line x1="611" y1="304" x2="611" y2="169" stroke="#8073ac" stroke-width="2"/>
	<g>
		<path d="M637 144 a14 14 90 0 1 14 14 V169 h-80 V158 a14 14 90 0 1 14 -14" fill="#b2abd2" stroke="#b2abd2" stroke-width="0"/>
		<path d="M651 169 v11 a14 14 90 0 1 -14 14 H585 a14 14 90 0 1 -14 -14 V169 H80" fill="#d8daeb" stroke="#d8daeb" stroke-width="0"/>
		<rect x="571" y="144" width="80" height="50" fill="none" rx="14" stroke="#8073ac" stroke-width="2"/>
		<line x1="571" y1="169" x2="651" y2="169" stroke="#8073ac" stroke-width="1"/>
		<text x="581" y="161.75" fill="#000000" font-family="Verdana" font-size="12">BELONGS</text>
		<text x="578" y="186.8" fill="#000000" font-family="Verdana" font-size="12">created_at</text>
	</g>
	<text x="544" y="186" fill="#b35806" font-family="Verdana" font-size="12">0,N</text>
	<text x="616" y="228" fill="#b35806" font-family="Verdana" font-size="12">0,N</text>
</g>

<!-- Association FAVORITE -->
<g>
	<line x1="486" y1="169" x2="348" y2="304" stroke="#8073ac" stroke-width="2"/>
	<line x1="223" y1="169" x2="348" y2="304" stroke="#8073ac" stroke-width="2"/>
	<g>
		<path d="M374 279 a14 14 90 0 1 14 14 V304 h-80 V293 a14 14 90 0 1 14 -14" fill="#b2abd2" stroke="#b2abd2" stroke-width="0"/>
		<path d="M388 304 v11 a14 14 90 0 1 -14 14 H322 a14 14 90 0 1 -14 -14 V304 H80" fill="#d8daeb" stroke="#d8daeb" stroke-width="0"/>
		<rect x="308" y="279" width="80" height="50" fill="none" rx="14" stroke="#8073ac" stroke-width="2"/>
		<line x1="308" y1="304" x2="388" y2="304" stroke="#8073ac" stroke-width="1"/>
		<text x="317" y="296.75" fill="#000000" font-family="Verdana" font-size="12">FAVORITE</text>
		<text x="315" y="321.8" fill="#000000" font-family="Verdana" font-size="12">created_at</text>
	</g>
	<text x="406" y="219.81" fill="#b35806" font-family="Verdana" font-size="12">0,N</text>
	<text x="268" y="210.89" fill="#b35806" font-family="Verdana" font-size="12">0,N</text>
</g>

<!-- Association OWNED_BY -->
<g>
	<line x1="486" y1="169" x2="486" y2="304" stroke="#8073ac" stroke-width="2"/>
	<line x1="611" y1="304" x2="486" y2="304" stroke="#8073ac" stroke-width="2"/>
	<g>
		<path d="M515 279 a14 14 90 0 1 14 14 V304 h-86 V293 a14 14 90 0 1 14 -14" fill="#b2abd2" stroke="#b2abd2" stroke-width="0"/>
		<path d="M529 304 v11 a14 14 90 0 1 -14 14 H457 a14 14 90 0 1 -14 -14 V304 H86" fill="#d8daeb" stroke="#d8daeb" stroke-width="0"/>
		<rect x="443" y="279" width="86" height="50" fill="none" rx="14" stroke="#8073ac" stroke-width="2"/>
		<line x1="443" y1="304" x2="529" y2="304" stroke="#8073ac" stroke-width="1"/>
		<text x="451" y="296.75" fill="#000000" font-family="Verdana" font-size="12">OWNED_BY</text>
	</g>
	<text x="491" y="271" fill="#b35806" font-family="Verdana" font-size="12">0,N</text>
	<text x="545" y="296" fill="#b35806" font-family="Verdana" font-size="12">1,1</text>
</g>

<!-- Association CONTAINS -->
<g>
	<line x1="611" y1="304" x2="348" y2="397" stroke="#8073ac" stroke-width="2"/>
	<line x1="223" y1="169" x2="348" y2="397" stroke="#8073ac" stroke-width="2"/>
	<g>
		<path d="M374 372 a14 14 90 0 1 14 14 V397 h-80 V386 a14 14 90 0 1 14 -14" fill="#b2abd2" stroke="#b2abd2" stroke-width="0"/>
		<path d="M388 397 v11 a14 14 90 0 1 -14 14 H322 a14 14 90 0 1 -14 -14 V397 H80" fill="#d8daeb" stroke="#d8daeb" stroke-width="0"/>
		<rect x="308" y="372" width="80" height="50" fill="none" rx="14" stroke="#8073ac" stroke-width="2"/>
		<line x1="308" y1="397" x2="388" y2="397" stroke="#8073ac" stroke-width="1"/>
		<text x="315" y="389.75" fill="#000000" font-family="Verdana" font-size="12">CONTAINS</text>
		<text x="315" y="414.8" fill="#000000" font-family="Verdana" font-size="12">created_at</text>
	</g>
	<text x="544" y="312.91" fill="#b35806" font-family="Verdana" font-size="12">0,N</text>
	<text x="268" y="238.23" fill="#b35806" font-family="Verdana" font-size="12">0,N</text>
</g>

<!-- Entity TAG -->
<g>
	<g>
		<rect x="9" y="144" width="36" height="25" fill="#fdb863" stroke="none" stroke-width="0" opacity="1"/>
		<rect x="9" y="169" width="36" height="25" fill="#fee0b6" stroke="none" stroke-width="0" opacity="1"/>
		<rect x="9" y="144" width="36" height="50" fill="none" stroke="#e08214" stroke-width="2" opacity="1"/>
		<line x1="9" y1="169" x2="45" y2="169" stroke="#e08214" stroke-width="1"/>
	</g>
	<text x="14" y="161.75" fill="#000000" font-family="Verdana" font-size="12">TAG</text>
	<text x="14" y="186.8" fill="#000000" font-family="Verdana" font-size="12">tag</text>
	<line x1="14" y1="189" x2="34" y2="189" stroke="#000000" stroke-width="1"/>
</g>

<!-- Entity SCRIPT -->
<g>
	<g>
		<rect x="183" y="76" width="80" height="25" fill="#fdb863" stroke="none" stroke-width="0" opacity="1"/>
		<rect x="183" y="101" width="80" height="161" fill="#fee0b6" stroke="none" stroke-width="0" opacity="1"/>
		<rect x="183" y="76" width="80" height="186" fill="none" stroke="#e08214" stroke-width="2" opacity="1"/>
		<line x1="183" y1="101" x2="263" y2="101" stroke="#e08214" stroke-width="1"/>
	</g>
	<text x="200" y="93.75" fill="#000000" font-family="Verdana" font-size="12">SCRIPT</text>
	<text x="188" y="118.8" fill="#000000" font-family="Verdana" font-size="12">id</text>
	<line x1="188" y1="121" x2="200" y2="121" stroke="#000000" stroke-width="1"/>
	<text x="188" y="135.8" fill="#000000" font-family="Verdana" font-size="12">name</text>
	<text x="188" y="152.8" fill="#000000" font-family="Verdana" font-size="12">slug</text>
	<text x="188" y="169.8" fill="#000000" font-family="Verdana" font-size="12">content</text>
	<text x="188" y="186.8" fill="#000000" font-family="Verdana" font-size="12">created_at</text>
	<text x="188" y="203.8" fill="#000000" font-family="Verdana" font-size="12">updated_at</text>
	<text x="188" y="220.8" fill="#000000" font-family="Verdana" font-size="12">is_public</text>
	<text x="188" y="237.8" fill="#000000" font-family="Verdana" font-size="12">likes_count</text>
	<text x="188" y="254.8" fill="#000000" font-family="Verdana" font-size="12">version</text>
</g>

<!-- Entity USER -->
<g>
	<g>
		<rect x="433" y="84" width="106" height="25" fill="#fdb863" stroke="none" stroke-width="0" opacity="1"/>
		<rect x="433" y="109" width="106" height="145" fill="#fee0b6" stroke="none" stroke-width="0" opacity="1"/>
		<rect x="433" y="84" width="106" height="170" fill="none" stroke="#e08214" stroke-width="2" opacity="1"/>
		<line x1="433" y1="109" x2="539" y2="109" stroke="#e08214" stroke-width="1"/>
	</g>
	<text x="469" y="101.75" fill="#000000" font-family="Verdana" font-size="12">USER</text>
	<text x="438" y="126.8" fill="#000000" font-family="Verdana" font-size="12">id</text>
	<line x1="438" y1="129" x2="450" y2="129" stroke="#000000" stroke-width="1"/>
	<text x="438" y="143.8" fill="#000000" font-family="Verdana" font-size="12">name</text>
	<text x="438" y="160.8" fill="#000000" font-family="Verdana" font-size="12">email</text>
	<text x="438" y="177.8" fill="#000000" font-family="Verdana" font-size="12">password_hash</text>
	<text x="438" y="194.8" fill="#000000" font-family="Verdana" font-size="12">created_at</text>
	<text x="438" y="211.8" fill="#000000" font-family="Verdana" font-size="12">updated_at</text>
	<text x="438" y="228.8" fill="#000000" font-family="Verdana" font-size="12">profile_visibility</text>
	<text x="438" y="245.8" fill="#000000" font-family="Verdana" font-size="12">role</text>
</g>

<!-- Entity GROUP -->
<g>
	<g>
		<rect x="571" y="236" width="80" height="25" fill="#fdb863" stroke="none" stroke-width="0" opacity="1"/>
		<rect x="571" y="261" width="80" height="111" fill="#fee0b6" stroke="none" stroke-width="0" opacity="1"/>
		<rect x="571" y="236" width="80" height="136" fill="none" stroke="#e08214" stroke-width="2" opacity="1"/>
		<line x1="571" y1="261" x2="651" y2="261" stroke="#e08214" stroke-width="1"/>
	</g>
	<text x="589" y="253.75" fill="#000000" font-family="Verdana" font-size="12">GROUP</text>
	<text x="576" y="278.8" fill="#000000" font-family="Verdana" font-size="12">id</text>
	<line x1="576" y1="281" x2="588" y2="281" stroke="#000000" stroke-width="1"/>
	<text x="576" y="295.8" fill="#000000" font-family="Verdana" font-size="12">name</text>
	<text x="576" y="312.8" fill="#000000" font-family="Verdana" font-size="12">description</text>
	<text x="576" y="329.8" fill="#000000" font-family="Verdana" font-size="12">created_at</text>
	<text x="576" y="346.8" fill="#000000" font-family="Verdana" font-size="12">updated_at</text>
	<text x="576" y="363.8" fill="#000000" font-family="Verdana" font-size="12">is_public</text>
</g>
</svg>